<svg width="512" height="512" viewBox="0 0 512 512" xmlns="http://www.w3.org/2000/svg">
    <defs>
        <linearGradient id="bgGrad" x1="0%" y1="0%" x2="100%" y2="100%">
            <stop offset="0%" style="stop-color:#0f0f23;stop-opacity:1" />
            <stop offset="100%" style="stop-color:#1a1a2e;stop-opacity:1" />
        </linearGradient>
        <linearGradient id="waveGrad" x1="0%" y1="0%" x2="100%" y2="0%">
            <stop offset="0%" style="stop-color:#4ecdc4;stop-opacity:1" />
            <stop offset="100%" style="stop-color:#ff6b6b;stop-opacity:1" />
        </linearGradient>
        <filter id="glow" x="-20%" y="-20%" width="140%" height="140%">
            <feGaussianBlur stdDeviation="8" result="blur" />
            <feComposite in="SourceGraphic" in2="blur" operator="over" />
        </filter>
    </defs>
    
    <!-- Background -->
    <rect width="512" height="512" fill="url(#bgGrad)"/>
    
    <!-- Tuning Fork (音叉) Emblem -->
    <g transform="translate(256, 236)" opacity="0.15" stroke="white" stroke-width="12" fill="none" stroke-linecap="round">
        <!-- Prongs -->
        <path d="M -40 -120 L -40 20 A 40 40 0 0 0 40 20 L 40 -120" />
        <!-- Stem -->
        <line x1="0" y1="60" x2="0" y2="140" />
    </g>

    <!-- Subtle Grid Lines -->
    <g stroke="white" stroke-width="1" opacity="0.05">
        <line x1="64" y1="256" x2="448" y2="256" />
        <line x1="256" y1="64" x2="256" y2="448" />
    </g>

    <!-- The Waveform -->
    <path d="M 64 256 L 64 256 L 65 256.03211435949703 L 66 256.1282984115894 L 67 256.28807568839073 L 68 256.51065411230184 L 69 256.7949290417936 L 70 257.13948752046093 L 71 257.5426137143658 L 72 258.0022955184967 L 73 258.5162323090411 L 74 259.0818438141221 L 75 259.6962800716916 L 76 260.35643243942474 L 77 261.0589456177302 L 78 261.80023064339304 L 79 262.5764788079123 L 80 263.3836764513006 L 81 264.21762057898155 L 82 265.0739352464695 L 83 265.94808865375313 L 84 266.83541088873903 L 85 267.73111225675154 L 86 268.63030213094095 L 87 269.5280082565307 L 88 270.41919644013893 L 89 271.29879055395185 L 90 272.1616927833069 L 91 273.0028040452678 L 92 273.81704450504685 L 93 274.5993741166509 L 94 275.3448131139033 L 95 276.04846237802013 L 96 276.70552360820164 L 97 277.31131922223045 L 98 277.86131191485345 L 99 278.3511238027572 L 100 278.77655508622234 L 101 279.1336021590637 L 102 279.4184751002154 L 103 279.62761448230856 L 104 279.75770743479706 L 105 279.80570290161467 L 106 279.7688260359839 L 107 279.64459167783065 L 108 279.4308168622897 L 109 279.12563231099233 L 110 278.7274928612082 L 111 278.2351867914513 L 112 277.6478440058479 L 113 276.96494304338455 L 114 276.18631688210166 L 115 275.31215751234976 L 116 274.34301925738043 L 117 273.2798208237738 L 118 272.1238460685096 L 119 270.8767434738427 L 120 269.54052432554136 L 121 268.1175595944657 L 122 266.6105755258952 L 123 265.0226479454402 L 124 263.3571952947789 L 125 261.6179704148313 L 126 259.80905109830866 L 127 257.9348294378323 L 128 256 L 129 254.00954685986625 L 130 251.9687295342881 L 131 249.88306785645057 L 132 247.7583258376204 L 133 245.6004945657612 L 134 243.41577419407582 L 135 241.21055507580007 L 136 238.99139810465488 L 137 236.76501432325182 L 138 234.53824386443904 L 139 232.318034293052 L 140 230.1114184177947 L 141 227.92549164501355 L 142 225.76738894792365 L 143 223.64426152641136 L 144 221.56325323384965 L 145 219.53147684842907 L 146 217.5559902673166 L 147 215.64377270250776 L 148 213.80170095752922 L 149 212.0365258641817 L 150 210.3548489582809 L 151 208.76309947286285 L 152 207.267511726566 L 153 205.874102983892 L 154 204.58865186277785 L 155 203.4166773633949 L 156 202.36341859032066 L 157 201.43381523822194 L 158 200.63248890894135 L 159 199.96372532540556 L 160 199.4314575050762 L 161 199.0392499527575 L 162 198.7902839294597 L 163 198.68734385071158 L 164 198.73280486422476 L 165 198.92862165314887 L 166 199.2763185073334 L 167 199.77698070103946 L 168 200.43124721143573 L 169 201.23930480798282 L 170 202.200883538469 L 171 203.31525363302552 L 172 204.58122384293364 L 173 205.99714122645167 L 174 207.5608923892589 L 175 209.26990618244034 L 176 211.12115785624556 L 177 213.11117466315793 L 178 215.2360428991215 L 179 217.49141636710698 L 180 219.87252624257798 L 181 222.37419231584545 L 182 224.9908355817996 L 183 227.71649214309465 L 184 230.5448283885433 L 185 233.46915740427582 L 186 236.48245657114177 L 187 239.5773862978969 L 188 242.74630983593445 L 189 245.9813141177027 L 190 249.27423155751396 L 191 252.6166627501974 L 192 255.99999999999997 L 193 259.4154516092996 L 194 262.8540668540754 L 195 266.306761570688 L 196 269.76434427636724 L 197 273.2175427438967 L 198 276.6570309493191 L 199 280.07345631009 L 200 283.4574671299534 L 201 286.7997401659464 L 202 290.0910082323225 L 203 293.32208775584616 L 204 296.48390619684665 L 205 299.56752925062324 L 206 302.5641877442716 L 207 305.46530414475427 L 208 308.26251859505504 L 209 310.94771439654124 L 210 313.5130428572105 L 211 315.95094742730146 L 212 318.25418704580545 L 213 320.41585862372597 L 214 322.42941859247196 L 215 324.28870344854795 L 216 325.9879492287032 L 217 327.5218098529124 L 218 328.8853742759735 L 219 330.07418239211887 L 220 331.0842396408221 L 221 331.91203026593934 L 222 332.5545291844436 L 223 333.0092124252626 L 224 333.27406610312545 L 225 333.3475938968249 L 226 333.2288230059121 L 227 332.91730856453523 L 228 332.41313649590165 L 229 331.7169247956688 L 230 330.82982323743755 L 231 329.75351149841663 L 232 328.490195708231 L 233 327.0426034287518 L 234 325.413977077703 L 235 323.608065813649 L 236 321.6291159047605 L 237 319.4818596084846 L 238 317.17150259389166 L 239 314.70370994302226 L 240 312.0845907719983 L 241 309.3206815169732 L 242 306.418927934178 L 243 303.3866658673363 L 244 300.23160083958584 L 245 296.96178653072184 L 246 293.58560220407054 L 247 290.1117291505909 L 248 286.5491262208864 L 249 282.9070045186657 L 250 279.19480133181946 L 251 275.4221533796791 L 252 271.59886945715846 L 253 267.73490255838067 L 254 263.8403215640206 L 255 259.9252825779661 L 256 256.00000000000006 L 257 252.0747174220341 L 258 248.15967843597946 L 259 244.26509744161936 L 260 240.4011305428416 L 261 236.57784662032094 L 262 232.8051986681806 L 263 229.0929954813345 L 264 225.45087377911346 L 265 221.88827084940914 L 266 218.41439779592963 L 267 215.03821346927822 L 268 211.7683991604142 L 269 208.61333413266382 L 270 205.58107206582196 L 271 202.67931848302686 L 272 199.91540922800183 L 273 197.2962900569777 L 274 194.82849740610837 L 275 192.5181403915154 L 276 190.37088409523955 L 277 188.39193418635108 L 278 186.58602292229702 L 279 184.95739657124813 L 280 183.509804291769 L 281 182.2464885015834 L 282 181.17017676256242 L 283 180.28307520433123 L 284 179.58686350409835 L 285 179.08269143546477 L 286 178.7711769940879 L 287 178.6524061031751 L 288 178.72593389687455 L 289 178.9907875747374 L 290 179.4454708155564 L 291 180.08796973406066 L 292 180.9157603591779 L 293 181.92581760788107 L 294 183.11462572402655 L 295 184.4781901470876 L 296 186.0120507712967 L 297 187.71129655145208 L 298 189.570581407528 L 299 191.58414137627398 L 300 193.74581295419455 L 301 196.04905257269854 L 302 198.48695714278938 L 303 201.0522856034588 L 304 203.73748140494487 L 305 206.53469585524562 L 306 209.43581225572848 L 307 212.43247074937676 L 308 215.5160938031533 L 309 218.67791224415382 L 310 221.90899176767732 L 311 225.20025983405353 L 312 228.54253287004656 L 313 231.92654368991003 L 314 235.34296905068086 L 315 238.78245725610353 L 316 242.23565572363268 L 317 245.6932384293118 L 318 249.14593314592452 L 319 252.58454839070035 L 320 255.99999999999997 L 321 259.38333724980265 L 322 262.725768442486 L 323 266.0186858822971 L 324 269.25369016406546 L 325 272.4226137021029 L 326 275.5175434288581 L 327 278.5308425957242 L 328 281.4551716114566 L 329 284.2835078569053 L 330 287.00916441820044 L 331 289.6258076841545 L 332 292.12747375742197 L 333 294.5085836328931 L 334 296.76395710087854 L 335 298.888825336842 L 336 300.87884214375447 L 337 302.7300938175596 L 338 304.439107610741 L 339 306.0028587735483 L 340 307.41877615706636 L 341 308.6847463669744 L 342 309.799116461531 L 343 310.7606951920171 L 344 311.56875278856427 L 345 312.22301929896054 L 346 312.7236814926666 L 347 313.07137834685113 L 348 313.26719513577524 L 349 313.31265614928844 L 350 313.2097160705403 L 351 312.96075004724247 L 352 312.5685424949238 L 353 312.03627467459444 L 354 311.36751109105865 L 355 310.56618476177806 L 356 309.63658140967937 L 357 308.58332263660515 L 358 307.4113481372222 L 359 306.125897016108 L 360 304.732488273434 L 361 303.2369005271371 L 362 301.6451510417191 L 363 299.9634741358183 L 364 298.1982990424708 L 365 296.3562272974923 L 366 294.44400973268336 L 367 292.46852315157093 L 368 290.4367467661504 L 369 288.35573847358864 L 370 286.23261105207644 L 371 284.0745083549865 L 372 281.8885815822053 L 373 279.68196570694806 L 374 277.4617561355611 L 375 275.23498567674824 L 376 273.0086018953451 L 377 270.7894449241999 L 378 268.5842258059242 L 379 266.3995054342388 L 380 264.2416741623796 L 381 262.1169321435494 L 382 260.03127046571194 L 383 257.99045314013387 L 384 256 L 385 254.0651705621677 L 386 252.1909489016914 L 387 250.3820295851687 L 388 248.64280470522118 L 389 246.97735205455987 L 390 245.38942447410489 L 391 243.8824404055344 L 392 242.45947567445856 L 393 241.12325652615732 L 394 239.8761539314904 L 395 238.72017917622622 L 396 237.65698074261954 L 397 236.68784248765024 L 398 235.81368311789842 L 399 235.0350569566154 L 400 234.3521559941521 L 401 233.7648132085487 L 402 233.27250713879178 L 403 232.87436768900767 L 404 232.5691831377103 L 405 232.35540832216938 L 406 232.23117396401608 L 407 232.1942970983853 L 408 232.24229256520297 L 409 232.3723855176914 L 410 232.5815248997846 L 411 232.86639784093632 L 412 233.22344491377768 L 413 233.64887619724283 L 414 234.13868808514655 L 415 234.68868077776955 L 416 235.29447639179833 L 417 235.9515376219799 L 418 236.65518688609671 L 419 237.40062588334905 L 420 238.18295549495315 L 421 238.9971959547322 L 422 239.83830721669307 L 423 240.7012094460481 L 424 241.58080355986098 L 425 242.4719917434693 L 426 243.36969786905905 L 427 244.26888774324846 L 428 245.1645891112609 L 429 246.05191134624687 L 430 246.92606475353048 L 431 247.78237942101842 L 432 248.61632354869943 L 433 249.42352119208772 L 434 250.1997693566069 L 435 250.94105438226978 L 436 251.64356756057526 L 437 252.30371992830837 L 438 252.91815618587785 L 439 253.4837676909589 L 440 253.99770448150332 L 441 254.45738628563416 L 442 254.86051247953907 L 443 255.2050709582064 L 444 255.4893458876982 L 445 255.71192431160924 L 446 255.87170158841056 L 447 255.96788564050294 L 448 256" fill="none" stroke="url(#waveGrad)" stroke-width="14" stroke-linecap="round" stroke-linejoin="round" filter="url(#glow)"/>
    
    <!-- Centering Mark -->
    <circle cx="256" cy="256" r="4" fill="#4ecdc4" opacity="0.6" />
</svg>